<?xml version="1.0" standalone="no"?>
<!DOCTYPE svg PUBLIC "-//W3C//DTD SVG 20010904//EN"
 "http://www.w3.org/TR/2001/REC-SVG-20010904/DTD/svg10.dtd">
<svg version="1.0" xmlns="http://www.w3.org/2000/svg"
 width="984.000000pt" height="373.000000pt" viewBox="0 0 984.000000 373.000000"
 preserveAspectRatio="xMidYMid meet">

<g transform="translate(0.000000,373.000000) scale(0.100000,-0.100000)"
fill="#000000" stroke="none">
<path d="M9040 3389 c-254 -30 -437 -174 -481 -380 -17 -77 -6 -222 21 -291
25 -65 111 -166 174 -206 73 -46 188 -99 326 -151 74 -28 144 -56 155 -61 11
-5 43 -19 70 -31 117 -51 175 -115 175 -194 0 -125 -109 -192 -299 -182 -114
6 -153 17 -217 60 -62 41 -85 82 -94 169 -4 38 -14 76 -21 84 -10 9 -52 14
-153 15 -134 2 -140 1 -158 -21 -36 -44 -20 -212 30 -320 33 -71 148 -186 223
-222 247 -119 595 -116 807 8 187 110 281 335 225 538 -26 96 -92 186 -193
264 -55 42 -250 128 -462 203 -212 75 -281 143 -265 261 7 55 33 88 93 118 43
22 61 25 160 25 107 0 113 -1 180 -35 90 -46 124 -93 133 -183 11 -104 17
-107 181 -107 177 0 175 -2 168 142 -4 87 -10 113 -35 168 -85 184 -268 303
-506 329 -107 12 -129 12 -237 0z"/>
<path d="M3500 3360 c-20 -20 -20 -33 -20 -878 0 -819 1 -860 18 -875 17 -15
73 -17 594 -17 684 0 613 -18 613 155 0 170 46 154 -454 157 l-416 3 -3 719
c-2 652 -4 721 -19 738 -14 16 -33 18 -155 18 -125 0 -140 -2 -158 -20z"/>
<path d="M4997 3362 c-16 -17 -17 -93 -17 -885 0 -846 0 -867 19 -877 13 -6
221 -10 605 -10 l585 0 15 22 c12 17 16 49 16 133 0 169 44 154 -466 157
l-419 3 0 215 0 215 285 2 c346 3 320 -9 320 157 0 81 -4 118 -14 132 -13 18
-32 19 -303 24 l-288 5 0 205 0 205 425 2 c508 3 460 -13 460 157 0 105 -2
114 -23 134 l-23 22 -581 0 c-549 0 -581 -1 -596 -18z"/>
<path d="M6456 3358 c-12 -17 -16 -50 -16 -139 0 -100 3 -118 18 -132 16 -15
47 -17 224 -17 114 0 213 -3 222 -6 14 -6 16 -79 16 -724 0 -682 1 -718 18
-733 15 -14 42 -17 159 -17 123 0 142 2 156 18 15 17 17 86 19 738 l3 719 230
2 c283 4 265 -7 265 157 0 85 -4 117 -16 134 l-15 22 -634 0 -634 0 -15 -22z"/>
<path d="M8044 3356 c-8 -14 -22 -49 -30 -78 -18 -63 -27 -95 -84 -292 -40
-137 -42 -152 -29 -175 14 -25 18 -26 130 -29 109 -2 116 -1 135 20 12 13 27
39 34 58 16 43 108 268 120 295 5 11 23 55 40 99 29 73 30 80 15 102 -15 24
-19 24 -165 24 -147 0 -150 0 -166 -24z"/>
<path d="M1065 1282 c-239 -61 -396 -218 -461 -460 -17 -63 -19 -239 -3 -314
46 -226 191 -394 399 -464 44 -15 86 -19 205 -19 156 0 182 5 282 52 55 25
163 116 163 137 0 20 -124 136 -145 136 -11 0 -42 -16 -69 -35 -68 -48 -107
-59 -211 -59 -82 1 -95 4 -150 34 -108 58 -167 149 -186 285 -20 144 16 294
90 379 49 56 185 116 266 116 53 0 141 -28 196 -61 28 -18 60 -29 83 -29 33 0
40 6 92 76 l56 76 -33 34 c-31 32 -133 88 -209 114 -19 7 -93 14 -165 16 -102
3 -145 0 -200 -14z"/>
<path d="M1892 1282 c-10 -7 -12 -139 -10 -628 l3 -619 403 -3 402 -2 0 110 0
110 -257 2 -258 3 0 150 0 150 195 2 195 2 0 103 0 103 -198 3 -198 2 3 148 3
147 258 3 258 2 -3 108 -3 107 -390 2 c-214 2 -396 -1 -403 -5z"/>
<path d="M2957 1283 c-4 -3 -7 -287 -7 -630 l0 -623 145 0 145 0 0 235 0 235
54 0 c69 0 91 -18 149 -117 165 -288 183 -317 212 -335 25 -15 52 -18 173 -18
78 0 142 3 142 6 0 6 -179 304 -246 410 -18 28 -49 64 -70 81 l-37 29 55 31
c63 36 131 109 157 168 10 22 24 68 31 103 11 55 11 72 -5 138 -40 172 -154
256 -385 284 -94 11 -503 14 -513 3z m526 -229 c51 -26 75 -53 93 -106 20 -63
6 -134 -39 -185 -45 -51 -87 -65 -197 -67 l-95 -1 -3 188 -2 187 105 0 c78 0
115 -4 138 -16z"/>
<path d="M4054 1277 c-2 -7 -3 -58 -2 -113 l3 -99 175 -5 175 -5 3 -513 2
-512 140 0 140 0 2 512 3 513 175 5 175 5 0 110 0 110 -493 3 c-403 2 -493 0
-498 -11z"/>
<path d="M5297 1284 c-4 -4 -7 -288 -7 -631 l0 -623 145 0 145 0 -2 628 -3
627 -136 3 c-74 1 -138 -1 -142 -4z"/>
<path d="M5917 1283 c-4 -3 -7 -287 -7 -630 l0 -623 140 0 140 0 2 242 3 243
215 5 215 5 3 99 c1 55 -1 103 -6 108 -5 5 -99 9 -208 9 -110 -1 -205 3 -212
7 -9 6 -12 46 -10 163 l3 154 258 3 258 2 -3 108 -3 107 -391 3 c-215 1 -393
-1 -397 -5z"/>
<path d="M6987 1283 c-4 -3 -7 -287 -7 -630 l0 -623 145 0 145 0 0 630 0 630
-138 0 c-76 0 -142 -3 -145 -7z"/>
<path d="M7607 1283 c-4 -3 -7 -287 -7 -630 l0 -623 403 2 402 3 0 105 0 105
-258 3 -258 2 3 153 3 152 193 0 192 0 0 108 0 107 -195 0 -195 0 0 150 0 150
258 2 257 3 3 85 c2 47 0 95 -3 108 l-5 22 -394 0 c-216 0 -396 -3 -399 -7z"/>
<path d="M8665 1278 c-3 -7 -4 -290 -3 -628 l3 -615 275 -3 c338 -3 446 13
565 87 176 108 263 243 296 458 39 257 -96 524 -321 635 -92 45 -124 54 -223
68 -116 15 -586 13 -592 -2z m598 -225 c141 -45 214 -137 241 -302 15 -99 0
-239 -34 -310 -32 -64 -93 -125 -158 -157 -52 -25 -70 -28 -201 -32 -115 -4
-145 -2 -152 9 -10 16 -13 768 -3 793 9 23 234 23 307 -1z"/>
</g>
</svg>
